<?xml version="1.0" encoding="utf-8"?>
<!-- Generator: Adobe Illustrator 27.0.1, SVG Export Plug-In . SVG Version: 6.00 Build 0)  -->
<svg version="1.1" id="Layer_1" xmlns="http://www.w3.org/2000/svg" xmlns:xlink="http://www.w3.org/1999/xlink" x="0px" y="0px"
	 viewBox="0 0 700 700" style="enable-background:new 0 0 700 700;" xml:space="preserve">
<style type="text/css">
	.st0{fill:#1D417C;stroke:#FFFFFF;stroke-miterlimit:10;}
</style>
<image style="overflow:visible;" width="1204" height="914" xlink:href="../../../Screen Shot 2022-12-07 at 10.46.46 PM.png"  transform="matrix(0.4439 0 0 0.3563 84.8928 24.3153)">
</image>
<image style="overflow:visible;" width="1280" height="875" xlink:href="../../../5a54f032edcceab89d2a2db1.png"  transform="matrix(0.1415 0 0 0.1136 259.4126 172.6663)">
</image>
<g>
	<g>
		<path class="st0" d="M276.1,158.6c-3.6,1-5.4,1.5-9,2.6c-0.2-0.8-0.4-1.2-0.6-2c-0.3-0.9-0.6-1.5-0.9-1.6c-0.3-0.2-0.7-0.2-1.3,0
			c-0.6,0.2-1,0.5-1.2,0.9c-0.2,0.4-0.2,1,0,1.7c0.3,0.9,0.7,1.5,1.1,1.8c0.5,0.3,1.5,0.6,3.2,0.8c4.8,0.5,7.9,1.3,9.3,2.2
			c1.4,0.9,2.5,2.6,3.2,5.3c0.5,1.9,0.6,3.4,0.3,4.5c-0.3,1.1-1.3,2.1-2.7,3.2c-1.5,1.1-3.3,2-5.5,2.6c-2.4,0.7-4.6,1.1-6.5,1
			c-1.9-0.1-3.3-0.6-4.3-1.5c-0.9-0.9-1.7-2.3-2.4-4.2c-0.2-0.7-0.4-1-0.6-1.7c3.4-1.2,5.2-1.8,8.6-2.9c0.4,1.3,0.6,1.9,1,3.2
			c0.3,1,0.6,1.6,1,1.8s0.8,0.2,1.4,0c0.6-0.2,1-0.5,1.2-1c0.2-0.5,0.2-1,0-1.7c-0.5-1.6-1.1-2.5-1.8-2.8c-0.7-0.3-2.4-0.6-5.1-1
			c-2.7-0.4-4.5-0.6-5.5-0.9c-0.9-0.2-1.8-0.7-2.6-1.4c-0.8-0.7-1.5-1.8-2-3.1c-0.7-2-0.9-3.6-0.5-4.8c0.4-1.2,1.3-2.3,2.8-3.4
			c1.5-1.1,3.4-2,5.8-2.8c2.6-0.8,4.9-1.2,6.9-1.1c2,0.1,3.4,0.5,4.2,1.2c0.8,0.7,1.5,2.2,2.1,4.3
			C275.9,157.9,276,158.1,276.1,158.6z"/>
		<path class="st0" d="M299.4,144.7c-1.7,7.5-2.5,11.2-3.8,18.7c0.8,3.9,1.2,5.9,2,9.8c-3.4,0.7-5.1,1.1-8.5,1.9
			c-0.9-3.9-1.4-5.9-2.3-9.8c-4.3-6.2-6.5-9.3-11.2-15.4c3.7-1,5.5-1.4,9.2-2.3c2.7,4.9,4.2,8.3,4.8,10.1c-0.1-3,0-6.8,0.4-11.3
			C293.8,145.8,295.7,145.4,299.4,144.7z"/>
		<path class="st0" d="M301.1,144.4c2.9-0.5,4.3-0.7,7.2-1.2c4.8-0.7,8.1-1,9.8-0.9c1.7,0.1,3.2,0.6,4.4,1.6c1.2,1,1.9,2.6,2.1,5
			c0.2,2.1,0,3.6-0.7,4.4c-0.7,0.8-2,1.4-4.2,1.8c2,0.1,3.3,0.5,4,1c0.7,0.5,1.2,1,1.4,1.5c0.2,0.5,0.4,1.8,0.6,4.1
			c0.3,2.9,0.4,4.4,0.7,7.3c-3.4,0.3-5.2,0.5-8.6,0.9c-0.5-3.7-0.7-5.5-1.2-9.1c-0.2-1.5-0.5-2.4-0.8-2.7c-0.4-0.3-1.2-0.4-2.5-0.2
			c0.7,5,1,7.4,1.7,12.4c-3.7,0.5-5.5,0.8-9.2,1.4C304,160.8,303,155.3,301.1,144.4z M312,147.5c0.3,2.4,0.5,3.7,0.8,6.1
			c1.1-0.2,1.9-0.4,2.3-0.6c0.4-0.3,0.5-1,0.4-2.2c-0.1-0.6-0.1-0.9-0.2-1.5c-0.1-0.9-0.4-1.4-0.9-1.6
			C314,147.4,313.1,147.4,312,147.5z"/>
		<path class="st0" d="M345.7,140.2c2.1,9.2,4.1,18.4,5.9,27.7c-3.8,0-5.7,0-9.5,0.2c-0.3-2-0.4-3-0.7-5c-1.4,0-2,0.1-3.4,0.1
			c-0.1,2-0.2,3-0.3,5c-3.8,0.2-5.8,0.3-9.6,0.7c0.8-9.4,1.7-18.7,2.8-28C336.8,140.4,339.7,140.3,345.7,140.2z M340.9,158.1
			c-0.6-3.1-1.3-7-2-11.6c-0.8,5.3-1.2,9.3-1.4,11.7C338.9,158.2,339.6,158.2,340.9,158.1z"/>
		<path class="st0" d="M376.2,153.3c-3.9-0.3-5.9-0.5-9.8-0.7c0.1-1.9,0.2-2.9,0.3-4.8c0.1-1.4,0-2.3-0.2-2.6
			c-0.2-0.4-0.7-0.6-1.4-0.6c-0.8,0-1.4,0.1-1.6,0.6c-0.2,0.4-0.4,1.3-0.4,2.7c-0.2,5.1-0.3,7.7-0.5,12.9c-0.1,1.3,0,2.2,0.2,2.6
			s0.7,0.6,1.4,0.7c0.7,0,1.2-0.1,1.4-0.5c0.2-0.4,0.4-1.4,0.5-2.9c0.1-1.4,0.1-2.1,0.2-3.5c3.9,0.2,5.8,0.3,9.7,0.7
			c0,0.4-0.1,0.6-0.1,1.1c-0.3,2.9-0.7,4.9-1.3,6s-1.9,2.1-3.7,2.9c-1.9,0.8-4.1,1.1-6.7,1c-2.7-0.1-4.9-0.6-6.7-1.4
			c-1.8-0.8-2.9-1.9-3.5-3.2c-0.6-1.4-0.9-3.4-0.8-6.1c0-3.2,0-4.9,0-8.1c0-2,0.1-3.5,0.3-4.5c0.2-1,0.8-2,1.8-2.9
			c1-0.9,2.3-1.6,4.1-2.1s3.7-0.7,6-0.6c3,0.1,5.5,0.7,7.4,1.7c1.9,1,3.1,2.1,3.6,3.4c0.5,1.3,0.6,3.2,0.4,5.8
			C376.3,151.7,376.3,152.2,376.2,153.3z"/>
		<path class="st0" d="M404.1,144.9c-1.3,7.3-2,10.9-3.3,18.2c-0.4,2.1-0.7,3.5-1.1,4.3c-0.3,0.8-1,1.6-2,2.3
			c-1,0.7-2.3,1.2-3.8,1.4c-1.5,0.2-3.2,0.2-5.1-0.1c-2.1-0.3-4-0.8-5.5-1.6s-2.7-1.6-3.4-2.5c-0.7-1-1.1-1.9-1.2-2.9
			c-0.1-1,0.1-3,0.4-6.1c0.7-6.5,1-9.8,1.6-16.3c4.1,0.4,6.1,0.7,10.2,1.2c-1.1,8.2-1.7,12.4-2.8,20.6c-0.2,1.2-0.2,2-0.1,2.3
			c0.1,0.4,0.4,0.6,1,0.6c0.6,0.1,1,0,1.2-0.4c0.2-0.3,0.4-1.2,0.6-2.6c1.2-8.1,1.8-12.1,3-20.2C398,143.8,400.1,144.2,404.1,144.9z
			"/>
		<path class="st0" d="M427.2,158.8c-3.6-1-5.4-1.5-9.1-2.3c0.2-0.8,0.3-1.2,0.5-2c0.2-0.9,0.2-1.6,0.1-1.9
			c-0.2-0.3-0.5-0.5-1.1-0.7c-0.6-0.1-1.1-0.1-1.5,0.2c-0.4,0.3-0.7,0.8-0.8,1.5c-0.2,0.9-0.2,1.6,0,2.2c0.2,0.5,1,1.3,2.4,2.3
			c3.9,2.9,6.1,5.1,6.9,6.6c0.8,1.5,0.8,3.5,0.1,6.1c-0.5,1.9-1.2,3.2-2.1,4c-0.8,0.7-2.2,1.2-4,1.4c-1.8,0.2-3.8,0-6.1-0.5
			c-2.4-0.6-4.4-1.4-6-2.5s-2.5-2.2-2.9-3.4c-0.3-1.2-0.3-2.8,0.1-4.9c0.1-0.7,0.2-1.1,0.3-1.8c3.5,0.7,5.3,1.1,8.8,1.9
			c-0.3,1.3-0.5,2-0.8,3.3c-0.2,1-0.3,1.7-0.1,2c0.2,0.3,0.6,0.6,1.2,0.7c0.6,0.1,1.1,0.1,1.5-0.2c0.4-0.3,0.7-0.8,0.8-1.5
			c0.4-1.6,0.3-2.7-0.1-3.3c-0.5-0.6-1.8-1.8-3.9-3.5c-2.1-1.7-3.5-2.9-4.2-3.5c-0.7-0.7-1.2-1.5-1.5-2.6c-0.3-1-0.4-2.3-0.1-3.7
			c0.4-2.1,1.1-3.5,2-4.4c0.9-0.8,2.3-1.3,4.1-1.5c1.8-0.2,3.9,0,6.3,0.6c2.6,0.6,4.8,1.5,6.5,2.5c1.7,1.1,2.7,2.1,3,3.2
			c0.3,1,0.2,2.6-0.4,4.8C427.4,158.1,427.3,158.3,427.2,158.8z"/>
		<path class="st0" d="M433.4,151.8c6.7,1.9,10,3,16.5,5.3c-0.7,2.1-1.1,3.1-1.9,5.2c-2.6-0.9-3.9-1.4-6.5-2.2c-0.7,2-1,3-1.6,5
			c2.4,0.8,3.6,1.2,5.9,2c-0.7,2-1.1,3-1.8,5c-2.3-0.8-3.5-1.2-5.8-2c-0.8,2.3-1.1,3.5-1.9,5.8c2.7,0.9,4,1.3,6.7,2.3
			c-0.7,2.1-1.1,3.1-1.9,5.2c-6.2-2.2-9.3-3.2-15.6-5C428.7,167.8,430.3,162.4,433.4,151.8z"/>
	</g>
</g>
<image style="overflow:visible;" width="1204" height="914" xlink:href="../../../Screen Shot 2022-12-07 at 10.46.46 PM.png"  transform="matrix(0.4434 0 0 0.337 83.0977 376.3905)">
</image>
<g id="vQsIk7.tif">
	
		<image style="overflow:visible;" width="500" height="224" id="Layer_0" xlink:href="A262592EBCF0EE26.png"  transform="matrix(0.6723 0 0 0.4724 184.0723 490.9057)">
	</image>
</g>
</svg>
